<?xml version="1.0" encoding="utf-8"?>
<!-- Generator: Adobe Illustrator 19.2.1, SVG Export Plug-In . SVG Version: 6.00 Build 0)  -->
<svg version="1.1" id="Layer_1" xmlns="http://www.w3.org/2000/svg" xmlns:xlink="http://www.w3.org/1999/xlink" x="0px" y="0px"
	 viewBox="0 0 150 150" style="enable-background:new 0 0 150 150;" xml:space="preserve">
<style type="text/css">
	.st0{fill:#72C491;}
</style>
<path class="st0" d="M103.6,29.5c-1,0-2.4,0.5-2.9,1.5C95.4,40.1,85.6,45.5,75,45.5S54.6,39.7,49.2,31c-1-0.5-1.9-1.5-2.9-1.5
	c-1,0-2.4,0.5-2.9,1.5c-3.4,5.3-4.9,11.6-4.9,17.9C38.5,68.7,55,84.7,75,84.7c19.9,0,36.4-16,36.4-35.8c0-6.3-1.5-12.6-4.9-17.9
	C106,30.5,105.1,29.5,103.6,29.5L103.6,29.5 M104.1,115.6l2.4-20.3c0.5-2.9-1.5-4.4-4.4-3.4l-18.9,8.2c-2.9,1-2.9,3.4-0.5,5.3
	L99.2,118C101.7,119.5,103.6,118.5,104.1,115.6L104.1,115.6 M139.5,84.2l-11.2-17.4c-1.5-2.4-3.9-2.4-5.3,0l-9.7,17.9
	c-1.5,2.4,0,4.8,2.9,4.8l20.9-0.5C140,89,141,86.6,139.5,84.2L139.5,84.2 M145.4,36.3L125.5,30c-2.9-1-4.9,1-3.9,3.9l4.4,19.8
	c0.5,2.9,2.9,3.9,5.3,1.5l15.5-14C148.8,39.7,148.3,37.2,145.4,36.3L145.4,36.3 M3.6,43.5l16,13.1c2.4,1.9,4.9,1,5.3-1.9l3.4-19.8
	c0.5-3.4-1.5-4.8-4.4-3.9L4.5,38.2C1.6,39.2,1.1,41.6,3.6,43.5L3.6,43.5 M14.2,88.5h20.9c2.9,0,4.4-1.9,2.9-4.8L27.8,65.8
	c-1.5-2.4-3.9-2.4-5.3,0L11.8,84.2C9.9,86.6,11.3,88.5,14.2,88.5L14.2,88.5 M53.6,119.5l16-13.5c2.4-1.9,1.9-4.4-1-5.3l-19.4-6.8
	c-2.9-1-4.9,0.5-4.4,3.4l3.4,20.3C48.7,120.5,51.2,121.4,53.6,119.5L53.6,119.5"/>
</svg>
