<?xml version="1.0" encoding="utf-8"?>
<!-- Generator: Adobe Illustrator 21.1.0, SVG Export Plug-In . SVG Version: 6.00 Build 0)  -->
<svg version="1.1" id="Layer_1" xmlns="http://www.w3.org/2000/svg" xmlns:xlink="http://www.w3.org/1999/xlink" x="0px" y="0px"
	 viewBox="0 0 500 86" style="enable-background:new 0 0 500 86;" xml:space="preserve">
<style type="text/css">
	.st0{fill:#1DFFA7;}
</style>
<g>
	<path class="st0" d="M46.3,20.6v48H34.5v-8.9c-3.2,6.2-8.8,9.3-16.6,9.3c-5.4,0-9.6-1.6-12.7-4.9c-3.1-3.3-4.6-7.8-4.6-13.5v-30
		h11.7v26.6c0,3.3,0.9,6,2.7,7.9c1.8,1.9,4.3,2.9,7.5,2.9c3.7-0.1,6.6-1.4,8.8-3.9c2.1-2.6,3.2-5.8,3.2-9.8V20.6H46.3z"/>
	<path class="st0" d="M100.7,23.4c3.4,2.1,6.1,4.9,8,8.7c1.9,3.7,2.8,8,2.8,12.8c0,4.8-0.9,9-2.8,12.6c-1.8,3.6-4.5,6.5-7.9,8.5
		c-3.4,2-7.3,3-11.8,3c-3.6,0-6.7-0.7-9.5-2.1c-2.7-1.4-5-3.5-6.8-6.1v7.8H61.2V2.1h11.6v26.5c1.7-2.7,3.9-4.7,6.7-6.1
		c2.7-1.4,5.9-2.1,9.4-2.1C93.3,20.3,97.3,21.3,100.7,23.4z M95.9,54.9c2.5-2.7,3.8-6.2,3.8-10.4c0-4.2-1.3-7.7-3.8-10.4
		s-5.7-4-9.7-4c-4,0-7.2,1.3-9.7,4c-2.5,2.7-3.8,6.2-3.8,10.4c0,4.3,1.3,7.8,3.8,10.5c2.5,2.7,5.7,4,9.7,4
		C90.2,59,93.4,57.6,95.9,54.9z"/>
	<path class="st0" d="M150.3,58c2.3-1.1,4.4-2.8,6.2-5l6.8,6.3c-5.4,6.5-12.4,9.8-21,9.8c-4.9,0-9.3-1-13.1-3
		c-3.8-2-6.7-4.9-8.8-8.6c-2.1-3.7-3.2-7.9-3.2-12.8c0-4.8,1-9,3-12.7c2-3.7,4.9-6.5,8.6-8.6c3.7-2.1,8.1-3.1,13-3.1
		c6.6,0,11.9,1.9,15.9,5.8c4.1,3.9,6.2,9.1,6.5,15.6l-34,9.7c1.1,2.6,2.8,4.7,5,6.1c2.2,1.5,4.8,2.2,7.8,2.2
		C145.6,59.7,148,59.2,150.3,58z M132.5,33.1c-2.3,2.5-3.5,5.9-3.6,10.5l24-6.9c-1.9-4.8-5.5-7.3-10.9-7.3
		C138,29.4,134.8,30.6,132.5,33.1z"/>
	<path class="st0" d="M191.9,22.7c2.8-1.6,6-2.5,9.7-2.6v11.3c-4.9-0.3-8.9,0.9-11.8,3.5c-2.9,2.6-4.4,6.1-4.4,10.5v23.1h-11.6v-48
		h11.6v9.2C187,26.8,189.2,24.4,191.9,22.7z"/>
	<path class="st0" d="M249.7,23.4c3.4,2.1,6.1,4.9,8,8.7c1.9,3.7,2.8,8,2.8,12.8c0,4.8-0.9,9-2.8,12.6c-1.8,3.6-4.5,6.5-7.9,8.5
		c-3.4,2-7.3,3-11.8,3c-3.6,0-6.7-0.7-9.5-2.1c-2.7-1.4-5-3.5-6.8-6.1V86h-11.6V20.6h11.6v7.9c1.7-2.7,3.9-4.7,6.7-6.1
		c2.7-1.4,5.9-2.1,9.4-2.1C242.4,20.3,246.3,21.3,249.7,23.4z M245,54.9c2.5-2.7,3.8-6.2,3.8-10.4c0-4.2-1.3-7.7-3.8-10.4
		c-2.5-2.7-5.7-4-9.7-4c-4,0-7.2,1.3-9.7,4c-2.5,2.7-3.8,6.2-3.8,10.4c0,4.3,1.3,7.8,3.8,10.5c2.5,2.7,5.7,4,9.7,4
		C239.2,59,242.5,57.6,245,54.9z"/>
	<path class="st0" d="M312.9,25.2c3.2,3.3,4.7,7.8,4.7,13.5v30h-11.7V42.1c0-3.3-1-6-2.9-7.9c-1.9-1.9-4.5-2.9-7.8-2.9
		c-3.9,0.1-6.9,1.4-9.2,3.9c-2.3,2.6-3.4,5.9-3.4,9.9v23.6h-11.6V2.1h11.6v27.7c3.3-6.3,9-9.5,17.2-9.6
		C305.4,20.2,309.7,21.8,312.9,25.2z"/>
	<path class="st0" d="M376.7,20.6v48h-11.6V61c-1.7,2.6-3.9,4.6-6.7,6.1c-2.7,1.4-5.8,2.1-9.3,2.1c-4.5,0-8.5-1-11.9-3.1
		c-3.4-2.1-6.1-5-8-8.7c-1.9-3.7-2.9-8-2.9-12.9c0-4.8,1-9,2.9-12.7c1.9-3.7,4.6-6.5,8-8.6c3.4-2,7.4-3,11.8-3
		c3.5,0,6.6,0.7,9.4,2.1c2.7,1.4,5,3.4,6.7,6.1v-7.7H376.7z M360.9,55.8c2.4-2.4,3.8-5.5,4.2-9.4V43c-0.4-3.9-1.8-7-4.2-9.4
		c-2.4-2.4-5.5-3.5-9.3-3.5c-4,0-7.2,1.4-9.7,4.1c-2.5,2.7-3.8,6.2-3.8,10.5c0.1,4.3,1.3,7.8,3.8,10.5c2.5,2.7,5.7,4.1,9.7,4.1
		C355.3,59.4,358.4,58.2,360.9,55.8z"/>
	<path class="st0" d="M412.2,30.4c-2.5-0.8-4.8-1.2-6.8-1.2c-2,0-3.5,0.3-4.7,1c-1.2,0.7-1.7,1.7-1.7,3.2c0,1.5,0.7,2.6,2.2,3.5
		c1.5,0.8,3.8,1.7,6.9,2.6c3.3,1,6.1,2,8.2,3c2.1,1,4,2.5,5.6,4.4c1.6,1.9,2.4,4.5,2.4,7.7c0,4.7-1.8,8.3-5.4,10.8
		c-3.6,2.5-8.1,3.8-13.5,3.8c-3.7,0-7.3-0.6-10.8-1.7c-3.5-1.2-6.5-2.8-8.9-5l4-8.2c2.1,1.9,4.7,3.3,7.7,4.3c3,1,5.8,1.6,8.5,1.6
		c2.1,0,3.9-0.4,5.1-1.1c1.3-0.7,1.9-1.9,1.9-3.4c0-1.7-0.7-2.9-2.2-3.8c-1.5-0.8-3.9-1.8-7.2-2.8c-3.2-1-5.8-1.9-7.9-2.8
		c-2-0.9-3.8-2.3-5.3-4.2c-1.5-1.9-2.2-4.3-2.2-7.4c0-4.7,1.7-8.3,5.1-10.8c3.4-2.5,7.7-3.7,12.9-3.7c3.2,0,6.3,0.4,9.3,1.3
		c3.1,0.9,5.8,2.2,8.2,3.8l-4.2,8.4C417.1,32.3,414.7,31.2,412.2,30.4z"/>
	<path class="st0" d="M444.6,2c1.3,1.3,1.9,3,1.9,5c0,2-0.6,3.6-1.9,4.9c-1.3,1.3-2.8,2-4.7,2c-1.9,0-3.5-0.7-4.7-2
		c-1.3-1.3-1.9-3-1.9-4.9c0-2,0.6-3.7,1.9-5c1.2-1.3,2.8-2,4.7-2C441.7,0,443.3,0.7,444.6,2z M434.1,20.6h11.6v48h-11.6V20.6z"/>
	<path class="st0" d="M480.5,30.5c-3.9,0-7,1.3-9.4,3.9c-2.4,2.6-3.6,6-3.6,10.2c0,4.3,1.2,7.8,3.6,10.4c2.4,2.6,5.6,3.9,9.4,3.9
		c5.7,0,10-1.9,12.9-5.6l7.2,6c-2.1,3.1-5,5.5-8.5,7.2c-3.5,1.7-7.6,2.5-12.2,2.5c-4.7,0-8.9-1-12.6-3c-3.7-2-6.5-4.9-8.5-8.6
		c-2-3.7-3-7.9-3-12.7c0-4.8,1-9.1,3.1-12.8c2.1-3.7,4.9-6.6,8.6-8.6c3.7-2,7.9-3,12.6-3c4.3,0,8.2,0.8,11.7,2.3
		c3.4,1.5,6.2,3.7,8.4,6.5l-7.1,6.7C489.8,32.3,485.6,30.5,480.5,30.5z"/>
</g>
</svg>
